<svg xmlns="http://www.w3.org/2000/svg" width="1710" height="712" viewBox="0 0 1710 712">
  <defs>
    <style>
      .cls-1 {
        fill: #fff;
        fill-rule: evenodd;
      }
    </style>
  </defs>
  <path id="Shape_Solid" data-name="Shape Solid" class="cls-1" d="M405,186q0.5-2.5,1-5c9.265-5.274,31.294-18.268,33-30-2-1.327-22.6-29.083-23-31,3.485-.454,4-1.207,7-2v-1c-5.331.212-6.038,1.5-11,2-10.3-16.075-31.15-22.4-47-33-9.878-6.606-16.783-17.034-26-24-5.4-4.082-11.554-7.991-16-13-1.349-1.519-1.527-4.628-3-6-4.9-4.566-14.28-4.285-19-9-2.268-2.266-1.994-6.4-4-9-2.285-2.956-8.164-.615-11-3-1.52-1.279-1.664-4.439-3-6-2.619-3.061-10.446-1.983-16-2-6.456,4.473-41.44,5.843-52,6V17h-3v6h-1v1a454.3,454.3,0,0,0-51,9l-24,2c-18.427,4.251-39.679,5.583-58,10-1.265,3.795-4.165,6-6,9-3.307,5.411-4.485,11-8,16-14.834,21.118-35.221,39.614-54,57-0.138,7.968-2.023,34.27,1,39,0.816-4.711,3.211-5.716,5-9,2.148-3.944,2.481-8.313,5-12,5.809-8.5,23.758-12.208,38-12v3h3c1.572-5.713,4.33-6.387,12-6,5.772-3.759,15.673,1.2,23-2l4-5,24-2c2.609,0.848,2.648,2.5,7,3,0.372-2.076.242-1.924,1-3,1.69-1.142,4.9-1.066,8-1,1.295,0.877,2.467.894,5,1v3c2.328-.195,2.826-0.193,4-1h-3c0.828-3.245-.49-1.528,2-3,1.894,3.346,6.858,7.606,8,10,0.809,1.695-1.145,4.827-1,5,2.118,2.519,6.3,3.958,9,6,5.909,4.463,13.565,13.088,18,19,5.855,7.805,10.2,15.985,16,24,3.777,5.22,10.781,9.263,13,16,2.183,6.628-2.4,15.876-4,20a260.105,260.105,0,0,1-21,43c-9.387,15.321-15.472,33.025-21,52-3.238,11.115-2.486,21.347-6,32-5.445,16.508-14.935,29.351-15,51,14.772,3.608,31.413,14.073,42,23,5.033,4.244,6.156,11.209,13,14,10.487,4.277,23.262-5.513,37-2,19.435,4.969,48.877,30.383,54,49h1c2.273-15.805,16.923-33.618,29-40,14.992-7.922,26.066-1.776,26-26,1.854-2.811,1.128-10.487,1-15,6.919-4.181,5.568-9.423,10-16,3.3-4.9,9.61-7.88,13-13-13.323-9.22-6.536-29.347-11-48-2.759-11.526-20.365-43.886-17-56,1.107-3.986,4.15-4.862,5-10h-2c-1.567,1.243-.51.642-2,0-2.35-2.953-2.145-8.487-2-14,19.833-11.935,33.576-48.532,61-49,0.631,1.754.193,0.971,1,2-2.63,10.406-12.486,13.562-18,21-3.155,4.255-4.946,9.711-9,13l-6,2c-1.084,1.511.074,3.745-1,5l-8,5c-9.868,16.537,1.753,36.335,6,50v16c0.852,2.631,4.184,6.039,5,9,1.661,6.026-2.326,8.663-3,11l3,16c7.65,3.864,31.185,21.544,36,28,1.657,2.222,2.091,4.153,4,6v5c-9.114,2.34-11.907,10.321-19,14l-20,5c-2.781,2.942.8,6.8,0,10-0.858,3.441-5.557,6.118-7,9-4.075,8.141-3.167,22.736-3,34-13.689,6.4-12.48,9.454-16,26-0.317,1.491-2.151,7-1,10,1.214,3.164,6.6,9.015,4,16-1.475,3.955-4.549,2.21-5,9,7.647,7.888-2.083,18.752,1,30,1.668,6.084,6.365,12.326,8,19,3.336,13.615-8.454,21.651-11,31-2.981,10.945,3.189,21.294,5,29,2.187,9.3-4.7,16.717-3,21,1.772,4.934,3.947,5.137,4,13-1.286,2.029-1.79,9.374-1,13,2.357,10.816.836,26.465,1,39-2.076-.372-1.924-0.242-3-1-3.659-6.146-1.143-17.7-3-25-4.395-17.272-8.252-35.511-15-51-5.7-13.081-22.281-18.189-24-34,7.987-2.6,24.794-32.6,25-43-1.65-1.79-1.746-2.512-2-6,2.4-1.782,3.383-3.293,4-7-5.733-6.121-3.145-43.25-3-56h-1v2c-7.475,5.474-23.289,25.1-27,34-3.515,8.434-.67,22.517-9,26v1c-1.01.99-.988-0.985-1-1-4.619-5.26-3.426-13.339-6-21-3.7-11-12.951-19.358-18-29-5.636-10.763-5.753-25.94-21-27-0.775,6.32-4.749,18.994-3,26,0.972,3.893,4.512,8.947,3,16-1.4,6.52-6.49,25.165-4,33,2.867,9.022,9.8,11.894,10,25-12.18,8.739-12.85,31.237-15,50,14.874,5.282,8.208,44.785,8,61-0.109,8.5,1.311,20.232-1,27-0.8-1.021-.355-0.274-1-2-5.609-5.243-2.428-17.555-5-26-5.067-16.64-10.169-38.747-19-53-1.924-3.105-6.215-6.022-8-9-2.713-4.525,2.348-10-2-13-1.224,3.1-.375,2.261-4,3-4.019-3.684-7.415-3.47-8-11,10.826-6.485,22.607-20.476,26-34,1.786-7.12-4.619-41.927-1-48,0.83-1.392,2.625-.177,4-4-5.776-5.382-3.284-6.531-2-13l-3-9c0.5-5.06,4.285-7.891,5-14-2.076-.372-1.924-0.242-3-1-5.016-6.289-.584-14.48-12-15-5.285-4.79-13.736.528-21,1-2.3-28.339-35.733-27.142-45-48l-5,1q-0.5-3-1-6a18.068,18.068,0,0,1-4-3c-6.867-.438-7.833.692-15,1v-3c-3.375-1.048-5.035-4.022-8-5-13.356-4.406-28.369,6-30-10a14.124,14.124,0,0,1,4-1v2c0.752,1.073.6,0.946,1,3h7c-1.983-5.613.68-10.84,2-16h4c1.624,1.5,2.023,1.552,5,2a14.124,14.124,0,0,0,1-4h-1v-1c-3.1.77-3.84,2-6,1-0.8-1.021-.355-0.274-1-2,13.208-9.047,39.219-49.231,44-67,2.737-10.169-3.031-20.993,0-31,3.732-12.323,11.867-22.888,18-33,6.019-9.923,10.15-25.137,13-37-3.8-1.9-5.183-4.314-8-7,0.227-3.763.874-4.557,2-7h-1c-1.706,2.2-2.421,2.488-6,3-6.62-11.006-22.535-17.773-24-33,4.378-.51,6.262-1.977,10-3,0.931-3.069,2.077-3.749,3-7h-6c-4.095,2.307-8.8-.663-16-1-1.651-2.435-3.693-3.221-5-6-0.961-1.418-.976-3.273-1-6-9.553-.433-15.9-1.947-29-2l-2-4c-3.671,2.478-4.412,5.1-10,6v-3H76c-1-2.273-.745-2.774-3-4-2,12.434-5.232,3.665-12,8-2.87,1.839-3.964,7.936-7,10-4.3,2.924-9.689,3.091-14,6-8.519,5.748-17.1,18.708-22,28-3.345,6.346-7.8,24.813-15,26-0.091-21.126-1.348-42.753-3-60-0.623-6.509-1.753-21.56,1-26,3.012-8.562,13.124-11.306,18-18,2.97-4.078,4.015-8.9,7-13,2.183-3,6.39-3.452,9-6,4.13-4.031,6.606-10.255,10-15,14.987-20.955,31.249-39.465,60-47,9.251-2.424,17.282-.568,26-3,16.449-4.588,41.607-13.716,59-9,3-1.237,5.581-4.954,9-6l12,1c4.467-.889,10.387-2.823,16-3,5.216-.165,12.824,1.417,15-2-3.245-.828-1.528.49-3-2,25.186-6.525,49.094,2.3,60,17,2.124,2.864,6.558,12.4,9,14,2.339,1.536,6.9-.261,9,1,2.5,1.506,4.617,5.375,7,7,14.064,9.591,29.178,16.29,43,26,13.753,9.662,23.745,24.054,37,34,10.294,7.724,21.884,12.94,33,20,5.11,3.245,9,8.631,14,12l-1,3a21.42,21.42,0,0,0-5,2v2c3.024,0.736,3.527,1.464,7,2,1.224-2.057,1.649-2.912,4-4,1.235,3.067,2.3,2.915,3,7C435.445,151.2,430.835,183.407,405,186ZM115,130c0.074,2.532.12,3.716,1,5C115.926,132.468,115.88,131.284,115,130Zm23,15v-3c-4.757-1.017-3.844-2.688-10-3q-0.5-2.5-1-5c-2.4.374-1.538,0.63-4,0v4c2.521,1.738,4.962,4.745,7,7A50.655,50.655,0,0,0,138,145Zm-8-11c1.021,0.8.274,0.355,2,1C130.979,134.2,131.726,134.645,130,134Zm-79,2-1,4h2v-1c0.752-1.073.6-.946,1-3H51Zm100,2v2h1v-2h-1Zm298,7v2a2.834,2.834,0,0,0,1-1h1C449.979,145.2,450.726,145.645,449,145Zm-72,9v4c-11.12,7.558-15.029,21.254-23,32-8.132,10.963-22.229,17.682-30,29-6.259,9.116-8.543,26.467-21,29-0.065-6.828-1.879-9.491-3-14q0.5-20.5,1-41c6.185-.95,19.929-1.752,25-5,5.616-3.6,9.352-10.4,15-14,5.689-3.628,11.919-4.447,18-8C364.82,162.6,369.955,155.569,377,154ZM150,171v5h5v-1c-0.8-1.18-.773-1.681-1-4h-4Zm8,6v3h3c0.828-3.245-.49-1.528,2-3v3c-2.431,1.651-3.11,2.7-4,6h1v-1c4.29-2.594,8.43-5.5,9-12h-2C164.7,175.393,162.273,176.468,158,177Zm21,31c1.021,0.8.274,0.355,2,1C179.979,208.2,180.726,208.645,179,208Zm177,47c1.021,0.8.274,0.355,2,1C356.979,255.2,357.726,255.645,356,255Zm3,34v2c2.328-.195,2.826-0.193,4-1ZM109,382c0.42,3.1.713,2.383,0,5h1v-1c0.8-1.021.355-.274,1-2C110.128,383.26,109.872,382.74,109,382Zm-11,3v4h5c-0.372-2.076-.242-1.924-1-3C100.82,385.2,100.319,385.227,98,385Zm96,69v-5h-2v2a11.568,11.568,0,0,0-2,3h4Zm31,68v2h1v-2h-1Zm305,94c-1.013,8.885-1.01,20.6-1,31-2.906-.058-1.389-0.964-3,0,3.717,3.384,3.833,11.7,2,18-3.312,11.388,1.682,33.422,0,43h-2c-4.247,3.363-12.289,3.14-20,3-0.492-5.268-2.8-5.893-4-9V653c2.076-.372,1.924-0.242,3-1-2.873-1.12-1.842-.174-3-3,1.92-1.632.42-24.65-1-31-4.58-2.663-9.866-3.134-18-3-3.352-5.426-3.158-14.53-3-24h2c3.236-2.562,10.055-2.154,16-2,1.537-2.591,4.1-5.769,5-9,1.655-5.94-.337-10.365,2-15,10.157-20.147,30.37-22.621,59-22v1h1c0.438,6.5.991,14.2,1,22l-2,1c-5.266,3.906-14.406-.322-22,2-2.636.806-5.668,3.136-9,4-2.51,4.814-4.277,7.464-3,14h2c5.067,3.477,17.831,2.136,26,2a21.509,21.509,0,0,1,1,7c2.972,4.071,1.265,16.231-2,18C551.946,617.632,538.293,616.142,530,616Zm171-74,25,1c2.048,8.117,3.009,18.248,3,30-11.592,3.1-16.255,3.672-31,3a18.068,18.068,0,0,0-3-4c-0.13-10.652-.765-17.079,1-26A24.935,24.935,0,0,0,701,542ZM949,701h-8v-6h-1v-1c-1.754.631-.971,0.193-2,1-1.322,1.737-1.727,1.607-1,3,1.133,1.546,1.085.843,2,3a26.762,26.762,0,0,0-7,2v1h4v4c-6.731.844-13.4,5.558-24,3l-18-6c-0.771,4.266-1.785,3.623-4,6-5.109.159-14.714,1.167-18-1-8.639-3.233-5-27.568-5-39V548c1.262-1.359,1.365-1.768,2-4,6.349-1.666,16.414-2.538,24-1v2c6.421,8.592-1.407,35.627,3,47l3,1c10.036-9.655,34.939-1.947,43,3,18.94,11.624,27,25.278,27,56q-0.5,10.5-1,21a85.235,85.235,0,0,1-12,22C953.383,698.224,950.574,696.06,949,701Zm342-159c15.79-.051,32.69.593,47,1a21.619,21.619,0,0,1,1,7c3.04,5.165-2.41,8.193-2,13,0.13,1.555,2.65,5.641,3,7v81c-0.02,12.78-4.88,20.37-3,31,6.25,1.564,15.08,2.037,24,2v2c3.1,4.293,2.14,14.738,2,22l-3,1c-3.27,2.882-10.86,2-17,2-14.92,0-32.02.392-44-2-7.71-1.538-12.89,5.145-18-1-3.15-3.788-3.09-18.205,0-22,7.72-6.672,22.23-4.314,28-13,7.9-11.889,4-56.232,4-76,0-7.855,1.56-20.353-2-25-4.85-4.156-16.18-1.781-23-4-0.46-6.771-.99-14.9-1-23A9.281,9.281,0,0,0,1291,542ZM230,564a14.338,14.338,0,0,1,1-5l-4-1q-0.5,3-1,6h4Zm-7,24c1.021,0.8.274,0.355,2,1C223.979,588.2,224.726,588.645,223,588Zm480,0,26,1q0.5,1.5,1,3c3.485,5.3,2,17.7,2,26,0,11.932,1.041,26.758-1,37q0.5,6.5,1,13c-0.956,4.035-2.691,7.46-3,13,2.281,1.225,2.251,1.638,6,2,5.03,3.11,18.368.171,24,2,1.037,8.646.7,14.927,0,24h-2c-4.391,3.615-11.367,1.3-16,0v-4c0.8-1.021.355-.274,1-2h-1c-10.3,11.817-44.819,8.148-67,7v-2c-3.3-4.221-2.155-15.653-2-23h2c3.8-2.6,19.359-5.753,24-7,1.6-3.137,4.918-5.848,6-9v-7c0.173-.522,2.945-2.769,3-3,0.735-3.1-3.583-4.566-2-9,0.646-1.81,3.784-1.082,3-5-0.142-.708-2.832-2.55-3-3V618c-6.59-1.568-16.966-2.4-25-4-0.872-6.9-1.375-17.145,0-24h2C688.279,586.205,696.877,591.8,703,588Zm443,4h6c0.37-2.076.24-1.924,1-3,1.29-.877,2.47-0.894,5-1,2.35,2.068,4.79.3,11,0,1.98,3.347,3.55,4.747,4,10-3.47,4.761,0,21.4,0,31,0.01,31.946,4,60.667-16,74-7.34,4.889-15.23,5.289-26,7-27.29,4.338-48.42-4.149-56-23-3.2-7.959-.89-16.027-3-26-4.17-19.7-1.53-50.051,0-70a18,18,0,0,0,4-3l20,1a2.826,2.826,0,0,0,1,1c0.82,18.284,1,40.125,1,60,0,9.71-1.04,21.138,3,27,6.09,8.847,38.72,11.026,43-1,5.16-6.867.42-21.819,1-32,0.39-6.853,1.22-17.013,3-24,1.08-4.223-1.42-6.354-2-8C1144.22,606.919,1146.12,596.958,1146,592Zm399,42v-4c-10.62-11.117-11.69-14.79-32-14-4.53.176-5.31-2.193-7-2a6.155,6.155,0,0,0-2,2c2.08,0.372,1.92.242,3,1h-2c-2.28,1.738-7.44,4.722-11,5-4.44-8.25-13.65-6.131-14-20,7.72-5.08,15.62-11.453,26-14,26.91-6.605,56.76,11.463,61,28-2.91-.058-1.39-0.964-3,0h-1c0.63,1.754.19,0.971,1,2,2.33,1.667,4.67,3.333,7,5,4.24,7.247,2.37,25.835,1,33q0.495,7,1,14c-1.63,3.653-4.98,4.2-6,10,6.58,4.979,6.25,15.125,6,27a14.134,14.134,0,0,1-4,1c-0.96-.618-2.9-1.333-4-2l-3,4h-13c-0.84-1.688-1.77-6.211-3-8-3.29,4.336-8.23,4.986-14,7-27.98,9.771-51.81-4.967-59-26-1.07-3.119-3.29-8.575-2-14C1479.37,633.767,1501.72,633.181,1545,634ZM220,590c1.021,0.8.274,0.355,2,1C220.979,590.2,221.726,590.645,220,590Zm475,1c0.828,3.245-.49,1.528,2,3a6.1,6.1,0,0,1,2-2v-1h-4Zm6,3c1.021,0.8.274,0.355,2,1C701.979,594.2,702.726,594.645,701,594Zm794,1c1.02,0.8.27,0.355,2,1C1495.98,595.2,1496.73,595.645,1495,595Zm-3,5c-0.02,2.773-1.16,2.166,3,3v-2ZM223,602a12.662,12.662,0,0,0,1,4h1v-4h-2Zm855,5v1h-1c-1.92.775,2,1,2,1C1078.37,607.246,1078.81,608.029,1078,607Zm10,11v-5c-1.67.333-3.33,0.667-5,1v5h1C1085.18,618.2,1085.68,618.227,1088,618Zm-578-2c-1.552,1.5-1.838.777-3,3,0.888,1.8.3,1.81,0,5h1v1c3.5,0.4,4.912,1.257,8,2v-8C513.536,617.467,513.724,616.709,510,616Zm403,0c-0.86.649-3.144,1.338-4,2-12.9,3.852-19.113,28.062-14,46,3.318,11.642,11.7,20.266,27,20,6.331-4.7,14.306-5.729,18-13,5.544-10.912,2.255-38.247-3-46-2.3-3.389-7.027-5.205-10-8Zm177,1c1.61,1.936,1.74,3.9,3,1h-1C1090.98,617.2,1091.73,617.645,1090,617Zm-867,3c1.021,0.8.274,0.355,2,1C223.979,620.2,224.726,620.645,223,620Zm940,1v2h5v-1A15.662,15.662,0,0,0,1163,621Zm-6,7c1.02,0.8.27,0.355,2,1C1157.98,628.2,1158.73,628.645,1157,628Zm-8,6v2h3v-1ZM514,649h4v-2c-2.146-2.435-1.563-4.548-5-6v-1h-1v1C513.471,642.993,513.812,645.649,514,649Zm1050-5a98.649,98.649,0,0,0-14,0v1h1c2.73,2.5,7.87,4.06,12,5,1.12-3.837,2.36-3.407,3-8-0.8-1.021-.35-0.274-1-2h-1v4Zm-20,17h-37c-3.87,4.813-7.8,4.941-8,14,2.75,3.214,5.17,6,8,9C1524.43,684.779,1541.99,678.247,1544,661Zm21,12v-5h-2c-1.75-1.284-4.22-1.683-7-2-1.27,1.685-2.73,2.316-4,4-0.25.968-.78,0.379,0,1C1555.59,673.348,1561.89,673.115,1565,673Zm-16,2c1.57,1.829.88,1.395,4,2a2.826,2.826,0,0,1,1-1v-1h-5Zm142,36c-6.42-.2-14.45-3.239-15-10,6.62-5.17,1.55-11.329,1-20,6.12-3.979,10.59-5.172,22-5,1.52,1.051,4.91,1.586,7,2v2c2.04,3.157,3.56,11.386,4,15-3.75,1.937-4.99,9.649-6,14-3.02.736-3.53,1.464-7,2a2.826,2.826,0,0,0-1-1c-0.46-5.63.54-4.965,1-11h-1v-1h-1v1C1693.19,701.668,1691.65,707.92,1691,711ZM955,686c0.828,3.245-.49,1.528,2,3v-3h-2Zm730,1v1h-1c-1.92.775,2,1,2,1C1685.37,687.246,1685.81,688.029,1685,687Zm-116,3c-1.67-.333-3.33-0.667-5-1v1c1.61,1.406,1.71,3.311,3,5,1.02-.8.27-0.355,2-1v-4Zm132,6v-3h-5v1c0.8,1.021.35,0.274,1,2h4Zm-971-2q0.5,2,1,4h2v-1A35.383,35.383,0,0,0,730,694Zm827,5c-0.67,1-1.33,2-2,3l3-1C1557.37,699.246,1557.81,700.029,1557,699Z"/>
</svg>
