<svg xmlns="http://www.w3.org/2000/svg" width="935.902" height="1453.439" viewBox="0 0 935.902 1453.439">
  <defs>
    <style>
      .cls-1 {
        fill: #fff;
        fill-rule: evenodd;
      }
    </style>
  </defs>
  <path id="Shape_Solid" data-name="Shape Solid" class="cls-1" d="M1059.78,298.829c15.53-.451,45.99-3.878,56.17,2.808,29.17,10.008,54.14,44.489,78.65,61.793,39.66,28.007,79.06,52.914,117.97,81.455,28.89,21.2,55.48,49.037,84.26,70.219,21.78,16.03,86.84,52.549,95.5,75.837h-2.81c-9.4,10.015-19.7,16.82-30.9,25.279-18.88,14.269-36.14,37.1-50.55,56.175-21.65,28.66-50.87,52.033-73.03,81.454-15.64,20.76-42.53,39.584-47.75,70.22,3.44,5.551.45,13.938,2.81,22.47,13.04,47.1,29.24,93.652,25.28,154.481,9.21,5.91,87.18,70.14,89.88,75.84-20.78,5.23-32.71,20.29-47.75,30.89-44.7,31.52-60.16,40.1-58.99,117.97-0.96.36-33.7,28.09-33.7,28.09v47.75c15.05,24.07-3.15,83.65,0,109.54,0.67,5.52,15.39,50.79,14.04,56.18-5.38,21.58-28.33,39.83-19.66,75.83,13.51,56.13,11.38,135.94,11.24,207.85h-5.62c-2.29-43.28-26.75-141.68-44.94-171.33-11.43-18.64-30-32.84-42.13-50.56,27.62-18.83,39.32-60.48,47.75-98.31,10.2-45.81-6.88-110.16,5.61-140.44h-2.8c-18.88,29.83-43,45.41-58.99,84.27-6.54,15.9-5.64,42.4-19.66,50.56-4.44-46.34-31.7-77.77-47.75-112.36-9.36-20.17-17.79-46.05-42.13-50.55a50.641,50.641,0,0,1-8.43,11.23c-0.24,35.75,5.45,75.08,2.81,106.73-0.78,9.41-6.18,26.11-2.81,39.33,4.78,18.71,17.92,22.22,19.66,44.94-12.17,15.09-37.61,66.85-28.08,101.11,2.69,9.7,10.19,24.75,11.23,30.9,8.85,52.04-.07,107.65,0,154.48h-2.81v-5.61c-5.62-9.36-2.27-24.51-5.61-36.52q-15.45-47.745-30.9-95.5a314,314,0,0,0-33.706-58.98c-8.1-10.91-18.742-11.44-22.471-28.09,20.611-13.31,47.007-49.77,53.367-75.84,2.19-8.95-2.27-13.19-2.81-19.66v-95.5c0.06-31.83,7.61-70.5-8.43-92.68-6.951-4.62-25-3.16-36.509-2.81-5.028,4.63-7.055,4.9-16.853,5.61-18.506-65.22-107.055-89.47-162.908-117.96-16.306-8.32-53.324-12.27-61.793-28.09,28.24-19.25,107.279-122.693,117.968-157.293,8.434-27.3.881-62.1,11.235-87.072,18.272-44.073,46.92-80.8,58.984-134.821-48.068-37.371-82.065-98.751-123.586-143.247C649.145,584.85,610.454,624.015,568.244,728.57h-5.617V655.542c-4.528-6.852-7.449-92.614-5.618-95.5,7.64-20.956,29.706-33.955,42.132-50.558C629.611,468.774,701.4,372.6,750.814,357.813Zm42.13,28.087c-12.1,7.159-71.69,6.381-89.88,11.235C919.706,362.788,812.882,368.1,714.3,388.709c-9.56,33.707-70.069,93.616-92.689,123.586-11.9,15.763-37.208,28.7-44.94,47.749v75.837h2.808v-2.809C593.9,617.891,597.44,584.5,624.42,582.514c16.768-12.461,44.365-10.861,67.41-16.852,49.342-12.828,111.98-22.472,165.718-25.279,22.486,38.593,58.238,66.451,84.263,101.116,16.519,22,30.03,45.993,47.749,67.41-11.676,66.579-47.585,108.185-70.219,160.1C898.419,917,891.273,969.484,874.4,1020.68c-9.51,28.86-23.493,52.48-25.279,89.88,33.319,7.63,60.067,29.59,84.264,47.75,16.858,12.66,14.737,29.73,44.94,30.9,10.182-9.07,52.395-8.47,67.415-2.81,40.5,15.26,85.48,57.49,103.92,95.5h2.81v-2.81c10.73-11.46,13.33-28.87,22.47-42.13,18.64-27.05,57.46-45.68,89.88-58.99-1.67-86.24,15.52-77.22,50.56-120.77-25.38-17.22-16.98-48.97-25.28-84.267-13.79-58.614-36.1-111.833-33.71-176.952,46-30.191,74.43-85.117,117.97-117.968,27.09-20.437,62.72-41.849,81.46-70.22-13.79-9.122-18.39-23.267-28.09-36.514-13.35-18.219-35.24-39.947-53.37-53.366-28.57-21.153-58.46-38-87.07-58.985-26.81-19.67-49.35-47.613-75.84-67.41-25.53-19.09-61.05-38-78.64-64.6h-30.9ZM1323.8,610.6c2.26,2.868,1,.77,2.81,5.618-18.63,13.588-31.06,40.4-44.94,58.984-19.83,26.564-47.93,48.82-67.41,75.837-11.22,15.56-21.81,44.835-39.32,53.366V790.363c-7.95-12.462-3.13-77.472-2.81-98.307C1207.47,684.675,1302.64,632.965,1323.8,610.6Z" transform="translate(-556.438 -297.531)"/>
</svg>
